<svg fill="none" height="24" width="99" xmlns="http://www.w3.org/2000/svg"><clipPath id="a"><path d="M0 0h98.667v24H0z"/></clipPath><g clip-path="url(#a)" fill="#fff"><path d="M5.202 15.99c-.378 1.764 0 3.495 2.198 3.495 1.502 0 2.403-.575 2.918-1.967.584-1.8-.824-2.616-1.82-2.955l-2.06-.713C2.25 12.458 1.975 9.064 2.361 6.925 3.116 2.648 6.55 0 10.876 0c4.052 0 6.627 2.308 5.7 7.332h-5.022c.344-1.833-.171-2.817-1.75-2.817-1.168 0-2.13.815-2.361 2.138-.138.781 0 1.935 1.27 2.445l2.232.712c2.54.747 5.734 2.92 4.395 7.944-.961 3.295-3.57 6.248-8.859 6.248-5.631 0-7.039-4.005-6.283-8.047h4.978zM27.59.272h4.944l3.4 23.389h-5.185L28.532 7.424 21.066 23.66h-5.187zM50.836 4.48c-2.92 0-5.632 2.852-6.456 7.537-.858 4.72.79 7.504 3.709 7.504 1.545 0 2.987-.747 4.189-2.378l3.708 2.073c-2.404 3.293-5.365 4.786-8.687 4.786-5.872 0-9.305-4.48-7.94-11.985C40.731 4.549 45.744 0 51.616 0c3.33 0 5.7 1.485 6.97 4.786l-4.464 2.071c-.644-1.63-1.777-2.376-3.287-2.376zm20.327 0c-2.919 0-5.631 2.852-6.455 7.537-.859 4.72.79 7.504 3.708 7.504 1.545 0 2.987-.747 4.19-2.378l3.707 2.073c-2.403 3.293-5.365 4.786-8.687 4.786-5.871 0-9.305-4.48-7.94-11.985C61.059 4.549 66.072 0 71.944 0c3.33 0 5.7 1.485 6.97 4.786l-4.45 2.071c-.657-1.63-1.79-2.376-3.301-2.376zm18.851 19.174l-4.391-7.733-1.378 7.733h-5.013L83.387.264H88.4l-1.34 7.478L92.856.274h5.795l-9.658 11.643 7.202 11.737z"/></g></svg>